<svg width="29" height="29" viewBox="0 0 29 29" fill="none" xmlns="http://www.w3.org/2000/svg">
<path fill-rule="evenodd" clip-rule="evenodd" d="M2.51745 2.51745C4.35489 0.680003 7.083 0 10.5209 0H18.4791C21.917 0 24.6451 0.680003 26.4826 2.51745C28.32 4.35489 29 7.083 29 10.5209V18.4791C29 21.917 28.32 24.6451 26.4826 26.4826C24.6451 28.32 21.917 29 18.4791 29H10.5209C7.083 29 4.35489 28.32 2.51745 26.4826C0.680003 24.6451 0 21.917 0 18.4791V10.5209C0 7.083 0.680003 4.35489 2.51745 2.51745ZM4.26575 4.26575C3.11884 5.41265 2.47247 7.32686 2.47247 10.5209V18.4791C2.47247 21.6731 3.11884 23.5873 4.26575 24.7343C5.41265 25.8812 7.32686 26.5275 10.5209 26.5275H18.4791C21.6731 26.5275 23.5873 25.8812 24.7343 24.7343C25.8812 23.5873 26.5275 21.6731 26.5275 18.4791V10.5209C26.5275 7.32686 25.8812 5.41265 24.7343 4.26575C23.5873 3.11884 21.6731 2.47247 18.4791 2.47247H10.5209C7.32686 2.47247 5.41265 3.11884 4.26575 4.26575Z" fill="#A8A8A8"/>
<path fill-rule="evenodd" clip-rule="evenodd" d="M11.7354 9.25893C12.3915 8.62834 13.2725 8.28125 14.1826 8.28125C15.0927 8.28125 15.9737 8.62834 16.6298 9.25893C17.2873 9.89093 17.6651 10.7575 17.6651 11.6705C17.6651 12.5835 17.2873 13.45 16.6298 14.082C15.9737 14.7126 15.0927 15.0597 14.1826 15.0597C13.2725 15.0597 12.3915 14.7126 11.7354 14.082C11.0779 13.45 10.7002 12.5835 10.7002 11.6705C10.7002 10.7575 11.0779 9.89093 11.7354 9.25893ZM14.1826 10.4447C13.8193 10.4447 13.479 10.5838 13.2346 10.8187C12.9917 11.0522 12.8636 11.3595 12.8636 11.6705C12.8636 11.9814 12.9917 12.2888 13.2346 12.5222C13.479 12.7571 13.8193 12.8963 14.1826 12.8963C14.546 12.8963 14.8862 12.7571 15.1306 12.5222C15.3735 12.2888 15.5016 11.9814 15.5016 11.6705C15.5016 11.3595 15.3735 11.0522 15.1306 10.8187C14.8862 10.5838 14.546 10.4447 14.1826 10.4447ZM15.2879 15.8583C16.458 15.9591 17.5618 16.45 18.4063 17.2558C19.253 18.0636 19.7858 19.1382 19.9013 20.2959C19.9606 20.8904 19.5268 21.4204 18.9323 21.4797C18.3378 21.539 17.8079 21.1051 17.7486 20.5107C17.6855 19.8786 17.3937 19.2798 16.9129 18.821C16.4311 18.3613 15.7902 18.0723 15.099 18.0135L15.0883 18.0125C14.486 17.9552 13.8792 17.9552 13.2769 18.0125L13.2691 18.0132C12.5778 18.0739 11.9372 18.3638 11.4551 18.8237C10.974 19.2828 10.6812 19.8814 10.6163 20.5137C10.5553 21.108 10.0241 21.5403 9.42985 21.4794C8.83556 21.4184 8.40324 20.8871 8.46423 20.2929C8.58285 19.1372 9.11622 18.0652 9.96169 17.2585C10.8053 16.4535 11.9072 15.9619 13.076 15.8585C13.8115 15.7888 14.5523 15.7887 15.2879 15.8583Z" fill="#A8A8A8"/>
</svg>
