<svg width="29" height="29" viewBox="0 0 29 29" fill="none" xmlns="http://www.w3.org/2000/svg">
<path fill-rule="evenodd" clip-rule="evenodd" d="M2.51745 2.51745C4.35489 0.680003 7.083 0 10.5209 0H18.4791C21.917 0 24.6451 0.680003 26.4826 2.51745C28.32 4.35489 29 7.083 29 10.5209V18.4791C29 21.917 28.32 24.6451 26.4826 26.4826C24.6451 28.32 21.917 29 18.4791 29H10.5209C7.083 29 4.35489 28.32 2.51745 26.4826C0.680003 24.6451 0 21.917 0 18.4791V10.5209C0 7.083 0.680003 4.35489 2.51745 2.51745ZM4.26575 4.26575C3.11884 5.41265 2.47247 7.32686 2.47247 10.5209V18.4791C2.47247 21.6731 3.11884 23.5873 4.26575 24.7343C5.41265 25.8812 7.32686 26.5275 10.5209 26.5275H18.4791C21.6731 26.5275 23.5873 25.8812 24.7343 24.7343C25.8812 23.5873 26.5275 21.6731 26.5275 18.4791V10.5209C26.5275 7.32686 25.8812 5.41265 24.7343 4.26575C23.5873 3.11884 21.6731 2.47247 18.4791 2.47247H10.5209C7.32686 2.47247 5.41265 3.11884 4.26575 4.26575Z" fill="#A8A8A8"/>
<path fill-rule="evenodd" clip-rule="evenodd" d="M14.9681 8.27431C14.9831 8.27365 14.9981 8.27336 15.0131 8.27345C15.6589 8.27749 17.2481 8.48568 18.5453 9.78284C18.8937 10.1313 18.8937 10.6963 18.5453 11.0448C18.1968 11.3932 17.6318 11.3932 17.2834 11.0448C16.4525 10.2139 15.4171 10.0656 15.0231 10.0583C13.8677 10.1157 12.7811 10.6261 11.9989 11.4793C11.2114 12.3384 10.797 13.4749 10.8467 14.6393C10.8478 14.6647 10.8478 14.69 10.8467 14.7154C10.797 15.8798 11.2114 17.0163 11.9989 17.8754C12.7821 18.7297 13.8705 19.2402 15.0275 19.2966C15.5368 19.2944 16.4547 19.185 17.2834 18.3564C17.6318 18.008 18.1968 18.008 18.5453 18.3564C18.8937 18.7049 18.8937 19.2699 18.5453 19.6184C17.241 20.9226 15.7631 21.0818 15.0068 21.0813C14.9939 21.0812 14.981 21.081 14.9681 21.0804C13.3314 21.0079 11.7904 20.2889 10.6834 19.0813C9.58498 17.883 9.00293 16.3008 9.06223 14.6773C9.00293 13.0539 9.58498 11.4717 10.6834 10.2734C11.7904 9.06575 13.3314 8.34677 14.9681 8.27431Z" fill="#A8A8A8"/>
<path fill-rule="evenodd" clip-rule="evenodd" d="M7.37598 13.0954C7.37598 12.6026 7.77548 12.2031 8.26828 12.2031H14.6985C15.1913 12.2031 15.5908 12.6026 15.5908 13.0954C15.5908 13.5882 15.1913 13.9877 14.6985 13.9877H8.26828C7.77548 13.9877 7.37598 13.5882 7.37598 13.0954Z" fill="#A8A8A8"/>
<path fill-rule="evenodd" clip-rule="evenodd" d="M7.37598 16.3064C7.37598 15.8136 7.77548 15.4141 8.26828 15.4141H14.6985C15.1913 15.4141 15.5908 15.8136 15.5908 16.3064C15.5908 16.7992 15.1913 17.1987 14.6985 17.1987H8.26828C7.77548 17.1987 7.37598 16.7992 7.37598 16.3064Z" fill="#A8A8A8"/>
</svg>
