<svg width="28" height="28" viewBox="0 0 28 28" fill="none" xmlns="http://www.w3.org/2000/svg">
<path d="M8.42864 27.1867C8.80018 27.2257 9.17104 27.2607 9.54142 27.2919C9.54188 27.292 9.54234 27.292 9.5428 27.2921C9.54342 27.2921 9.54405 27.2922 9.54467 27.2922C9.91487 27.3234 10.2846 27.3507 10.654 27.3741C12.8802 27.5154 15.096 27.5163 17.3453 27.3768C17.7142 27.3539 18.084 27.3273 18.4549 27.2968C18.4555 27.2968 18.456 27.2967 18.4565 27.2967C18.4571 27.2967 18.4576 27.2966 18.4582 27.2966C18.8278 27.2662 19.1986 27.2321 19.5706 27.1943C20.0189 27.1487 20.469 27.0976 20.9214 27.0411C22.6588 26.8241 23.9755 26.3837 24.9318 25.6155C25.8918 24.8442 26.4713 23.7566 26.7616 22.2822C27.7696 17.1617 27.4656 12.5973 27.3437 10.7689L27.3437 10.7678L27.3356 10.6458C27.3285 10.5391 27.2877 10.4254 27.2289 10.3106C27.1693 10.1941 27.0862 10.0668 26.9841 9.93074C26.7799 9.65868 26.4916 9.34081 26.1405 8.99019C25.4379 8.28841 24.4717 7.44316 23.3923 6.55161C21.2326 4.76788 18.6088 2.78969 16.7078 1.38697C15.1242 0.21842 12.9771 0.223768 11.3985 1.39906C9.51338 2.80262 6.91386 4.77754 4.7615 6.55784C3.68565 7.44771 2.71899 8.29103 2.00858 8.99118C1.6536 9.34103 1.35986 9.65782 1.14791 9.92865C1.04193 10.0641 0.954524 10.1904 0.889874 10.3055C0.826126 10.419 0.779667 10.53 0.764094 10.6334C0.499586 12.3898 0.190176 17.0454 1.33683 22.2853C1.65675 23.7473 2.23604 24.8315 3.18797 25.6039C4.13678 26.3737 5.43863 26.8195 7.17592 27.0411C7.59453 27.0945 8.01201 27.143 8.42864 27.1867ZM20.6088 24.5383C20.3065 24.5761 20.0054 24.6113 19.7054 24.6439V18.5684C19.7054 17.6023 19.236 16.7413 18.6426 16.1465C18.0493 15.552 17.1889 15.0802 16.2221 15.0802H11.7776C10.8108 15.0802 9.95036 15.552 9.35711 16.1465C8.7637 16.7413 8.29428 17.6023 8.29428 18.5684V24.6351C8.02841 24.6052 7.76203 24.5732 7.49505 24.5392C5.9841 24.3464 5.21097 23.9972 4.7771 23.6452C4.39243 23.3331 4.0373 22.8271 3.80075 21.7462C2.81177 17.2268 2.9933 13.174 3.20658 11.3942C3.33012 11.2473 3.51727 11.0456 3.77905 10.7876C4.41178 10.164 5.3128 9.37505 6.36906 8.50137C8.47104 6.76275 11.0295 4.81835 12.9048 3.42213C13.5933 2.90951 14.5208 2.90772 15.2102 3.41649C17.1009 4.81157 19.6805 6.75722 21.7861 8.49628C22.8448 9.37077 23.7395 10.1569 24.3581 10.7747C24.5777 10.9941 24.739 11.1691 24.851 11.301C24.977 13.2713 25.1687 17.3158 24.2869 21.7951C24.0783 22.8544 23.7309 23.3449 23.3521 23.6492C22.9141 24.0011 22.1274 24.3487 20.6088 24.5383ZM17.1832 24.8598C15.041 24.9924 12.9336 24.9914 10.8165 24.8571V18.5684C10.8165 18.4204 10.9032 18.168 11.1426 17.9281C11.3821 17.688 11.6327 17.6024 11.7776 17.6024H16.2221C16.367 17.6024 16.6176 17.688 16.8571 17.9281C17.0965 18.168 17.1832 18.4204 17.1832 18.5684V24.8598Z" fill="#A8A8A8" stroke="#A8A8A8" stroke-width="0.3" stroke-linecap="round" stroke-linejoin="round"/>
</svg>
