<svg width="32" height="32" viewBox="0 0 32 32" fill="none" xmlns="http://www.w3.org/2000/svg">
<g filter="url(#filter0_b_169_426)">
<path d="M24 10.6641C24 8.54233 23.1571 6.5075 21.6569 5.00721C20.1566 3.50692 18.1217 2.66406 16 2.66406C13.8783 2.66406 11.8434 3.50692 10.3431 5.00721C8.84286 6.5075 8 8.54233 8 10.6641C8 16.0691 6.6585 19.2384 5.52926 20.9487C5.14766 21.5267 5.61936 22.6641 6.31194 22.6641H25.6881C26.3806 22.6641 26.8523 21.5267 26.4707 20.9487C25.3415 19.2384 24 16.0691 24 10.6641Z" stroke="#A8A8A8" stroke-width="2.5" stroke-linecap="round" stroke-linejoin="round"/>
</g>
<path d="M18.3067 26.6641C18.0723 27.0682 17.7358 27.4036 17.331 27.6368C16.9262 27.8699 16.4672 27.9927 16 27.9927C15.5329 27.9927 15.0739 27.8699 14.6691 27.6368C14.2642 27.4036 13.9278 27.0682 13.6934 26.6641" stroke="#A8A8A8" stroke-width="2.5" stroke-linecap="round" stroke-linejoin="round"/>
<defs>
<filter id="filter0_b_169_426" x="-7.85693" y="-10.5859" width="47.7139" height="46.5" filterUnits="userSpaceOnUse" color-interpolation-filters="sRGB">
<feFlood flood-opacity="0" result="BackgroundImageFix"/>
<feGaussianBlur in="BackgroundImageFix" stdDeviation="6"/>
<feComposite in2="SourceAlpha" operator="in" result="effect1_backgroundBlur_169_426"/>
<feBlend mode="normal" in="SourceGraphic" in2="effect1_backgroundBlur_169_426" result="shape"/>
</filter>
</defs>
</svg>
