<svg width="32" height="32" viewBox="0 0 32 32" fill="none" xmlns="http://www.w3.org/2000/svg">
<mask id="path-1-outside-1_169_410" maskUnits="userSpaceOnUse" x="1.6665" y="1.66406" width="29" height="29" fill="black">
<rect fill="white" x="1.6665" y="1.66406" width="29" height="29"/>
<path fill-rule="evenodd" clip-rule="evenodd" d="M4.89277 15.4409C4.89277 20.2339 5.76482 22.6265 7.11565 23.9291C8.48564 25.2501 10.8993 25.9914 15.4433 25.9914C19.9873 25.9914 22.401 25.2501 23.771 23.9291C25.1218 22.6265 25.9939 20.2339 25.9939 15.4409C25.9939 10.6478 25.1218 8.25525 23.771 6.95266C22.401 5.63159 19.9873 4.89032 15.4433 4.89032C10.8993 4.89032 8.48564 5.63159 7.11565 6.95266C5.76482 8.25525 4.89277 10.6478 4.89277 15.4409ZM2.6665 15.4409C2.6665 25.3139 6.15109 28.2177 15.4433 28.2177C19.5626 28.2177 22.5406 27.647 24.5796 26.1515L27.4328 29.0047C27.8675 29.4394 28.5723 29.4394 29.007 29.0047C29.4417 28.57 29.4417 27.8652 29.007 27.4305L26.1483 24.5718C27.5892 22.5812 28.2201 19.642 28.2201 15.4409C28.2201 5.56788 24.7355 2.66406 15.4433 2.66406C6.15109 2.66406 2.6665 5.56788 2.6665 15.4409Z"/>
</mask>
<path fill-rule="evenodd" clip-rule="evenodd" d="M4.89277 15.4409C4.89277 20.2339 5.76482 22.6265 7.11565 23.9291C8.48564 25.2501 10.8993 25.9914 15.4433 25.9914C19.9873 25.9914 22.401 25.2501 23.771 23.9291C25.1218 22.6265 25.9939 20.2339 25.9939 15.4409C25.9939 10.6478 25.1218 8.25525 23.771 6.95266C22.401 5.63159 19.9873 4.89032 15.4433 4.89032C10.8993 4.89032 8.48564 5.63159 7.11565 6.95266C5.76482 8.25525 4.89277 10.6478 4.89277 15.4409ZM2.6665 15.4409C2.6665 25.3139 6.15109 28.2177 15.4433 28.2177C19.5626 28.2177 22.5406 27.647 24.5796 26.1515L27.4328 29.0047C27.8675 29.4394 28.5723 29.4394 29.007 29.0047C29.4417 28.57 29.4417 27.8652 29.007 27.4305L26.1483 24.5718C27.5892 22.5812 28.2201 19.642 28.2201 15.4409C28.2201 5.56788 24.7355 2.66406 15.4433 2.66406C6.15109 2.66406 2.6665 5.56788 2.6665 15.4409Z" fill="#A8A8A8"/>
<path d="M7.11565 23.9291L7.3933 23.6411L7.3933 23.6411L7.11565 23.9291ZM23.771 23.9291L23.4933 23.6411L23.4933 23.6411L23.771 23.9291ZM23.771 6.95266L23.4933 7.24059L23.4933 7.24059L23.771 6.95266ZM7.11565 6.95266L6.838 6.66472L6.838 6.66472L7.11565 6.95266ZM24.5796 26.1515L24.8625 25.8687C24.7229 25.7291 24.5023 25.7122 24.3431 25.829L24.5796 26.1515ZM27.4328 29.0047L27.7157 28.7219L27.7157 28.7219L27.4328 29.0047ZM29.007 29.0047L28.7242 28.7219L28.7242 28.7219L29.007 29.0047ZM29.007 27.4305L28.7242 27.7133L28.7242 27.7133L29.007 27.4305ZM26.1483 24.5718L25.8243 24.3373C25.7091 24.4964 25.7266 24.7157 25.8655 24.8547L26.1483 24.5718ZM7.3933 23.6411C6.1649 22.4566 5.29277 20.208 5.29277 15.4409H4.49277C4.49277 20.2599 5.36473 22.7964 6.838 24.217L7.3933 23.6411ZM15.4433 25.5914C10.9176 25.5914 8.6442 24.8474 7.3933 23.6411L6.838 24.217C8.32708 25.6529 10.881 26.3914 15.4433 26.3914V25.5914ZM23.4933 23.6411C22.2424 24.8474 19.9691 25.5914 15.4433 25.5914V26.3914C20.0056 26.3914 22.5595 25.6529 24.0486 24.217L23.4933 23.6411ZM25.5939 15.4409C25.5939 20.208 24.7217 22.4566 23.4933 23.6411L24.0486 24.217C25.5219 22.7964 26.3939 20.2599 26.3939 15.4409H25.5939ZM23.4933 7.24059C24.7217 8.42513 25.5939 10.6738 25.5939 15.4409H26.3939C26.3939 10.6218 25.5219 8.08537 24.0486 6.66472L23.4933 7.24059ZM15.4433 5.29032C19.9691 5.29032 22.2424 6.03437 23.4933 7.24059L24.0486 6.66472C22.5595 5.22882 20.0056 4.49032 15.4433 4.49032V5.29032ZM7.3933 7.24059C8.6442 6.03437 10.9176 5.29032 15.4433 5.29032V4.49032C10.881 4.49032 8.32708 5.22882 6.838 6.66472L7.3933 7.24059ZM5.29277 15.4409C5.29277 10.6738 6.1649 8.42513 7.39331 7.24059L6.838 6.66472C5.36473 8.08537 4.49277 10.6218 4.49277 15.4409H5.29277ZM15.4433 27.8177C10.8155 27.8177 7.76159 27.089 5.84798 25.2437C3.93781 23.4018 3.0665 20.3516 3.0665 15.4409H2.2665C2.2665 20.4031 3.13749 23.7414 5.29267 25.8196C7.44441 27.8945 10.7789 28.6177 15.4433 28.6177V27.8177ZM24.3431 25.829C22.4116 27.2456 19.5436 27.8177 15.4433 27.8177V28.6177C19.5816 28.6177 22.6696 28.0484 24.8162 26.4741L24.3431 25.829ZM27.7157 28.7219L24.8625 25.8687L24.2968 26.4344L27.15 29.2875L27.7157 28.7219ZM28.7242 28.7219C28.4457 29.0004 27.9942 29.0004 27.7157 28.7219L27.15 29.2875C27.7409 29.8785 28.699 29.8785 29.2899 29.2875L28.7242 28.7219ZM28.7242 27.7133C29.0027 27.9918 29.0027 28.4434 28.7242 28.7219L29.2899 29.2875C29.8808 28.6966 29.8808 27.7386 29.2899 27.1477L28.7242 27.7133ZM25.8655 24.8547L28.7242 27.7133L29.2899 27.1477L26.4312 24.289L25.8655 24.8547ZM27.8201 15.4409C27.8201 19.6173 27.1896 22.451 25.8243 24.3373L26.4724 24.8064C27.9887 22.7114 28.6201 19.6667 28.6201 15.4409H27.8201ZM15.4433 3.06406C20.0711 3.06406 23.125 3.79277 25.0386 5.63803C26.9488 7.47998 27.8201 10.5301 27.8201 15.4409H28.6201C28.6201 10.4786 27.7491 7.14037 25.5939 5.06216C23.4422 2.98727 20.1078 2.26406 15.4433 2.26406V3.06406ZM3.0665 15.4409C3.0665 10.5301 3.93781 7.47998 5.84798 5.63803C7.76159 3.79277 10.8155 3.06406 15.4433 3.06406V2.26406C10.7789 2.26406 7.44441 2.98727 5.29267 5.06216C3.13749 7.14037 2.2665 10.4786 2.2665 15.4409H3.0665Z" fill="#A8A8A8" mask="url(#path-1-outside-1_169_410)"/>
</svg>
