<svg width="32" height="32" viewBox="0 0 32 32" fill="none" xmlns="http://www.w3.org/2000/svg">
<mask id="mask0_169_407" style="mask-type:alpha" maskUnits="userSpaceOnUse" x="0" y="0" width="32" height="32">
<rect width="32" height="32" fill="#D9D9D9"/>
</mask>
<g mask="url(#mask0_169_407)">
<path d="M5.33317 27.9974C4.59984 27.9974 3.97206 27.7363 3.44984 27.2141C2.92762 26.6918 2.6665 26.0641 2.6665 25.3307V10.6641C2.6665 9.93073 2.92762 9.30295 3.44984 8.78073C3.97206 8.25851 4.59984 7.9974 5.33317 7.9974H10.6665V5.33073C10.6665 4.5974 10.9276 3.96962 11.4498 3.4474C11.9721 2.92517 12.5998 2.66406 13.3332 2.66406H18.6665C19.3998 2.66406 20.0276 2.92517 20.5498 3.4474C21.0721 3.96962 21.3332 4.5974 21.3332 5.33073V7.9974H26.6665C27.3998 7.9974 28.0276 8.25851 28.5498 8.78073C29.0721 9.30295 29.3332 9.93073 29.3332 10.6641V25.3307C29.3332 26.0641 29.0721 26.6918 28.5498 27.2141C28.0276 27.7363 27.3998 27.9974 26.6665 27.9974H5.33317ZM5.33317 25.3307H26.6665V10.6641H5.33317V25.3307ZM13.3332 7.9974H18.6665V5.33073H13.3332V7.9974Z" fill="#A8A8A8"/>
</g>
</svg>
