<svg width="618" height="254" viewBox="0 0 618 254" fill="none" xmlns="http://www.w3.org/2000/svg">
<path d="M36.288 18.072V26.84H24.384V63H13.44V26.84H1.536V18.072H36.288ZM58.0365 63.512C54.5378 63.512 51.3805 62.7653 48.5645 61.272C45.7912 59.7787 43.5938 57.6453 41.9725 54.872C40.3938 52.0987 39.6045 48.856 39.6045 45.144C39.6045 41.4747 40.4152 38.2533 42.0365 35.48C43.6578 32.664 45.8765 30.5093 48.6925 29.016C51.5085 27.5227 54.6658 26.776 58.1645 26.776C61.6632 26.776 64.8205 27.5227 67.6365 29.016C70.4525 30.5093 72.6712 32.664 74.2925 35.48C75.9138 38.2533 76.7245 41.4747 76.7245 45.144C76.7245 48.8133 75.8925 52.056 74.2285 54.872C72.6072 57.6453 70.3672 59.7787 67.5085 61.272C64.6925 62.7653 61.5352 63.512 58.0365 63.512ZM58.0365 54.04C60.1272 54.04 61.8978 53.272 63.3485 51.736C64.8418 50.2 65.5885 48.0027 65.5885 45.144C65.5885 42.2853 64.8632 40.088 63.4125 38.552C62.0045 37.016 60.2552 36.248 58.1645 36.248C56.0312 36.248 54.2605 37.016 52.8525 38.552C51.4445 40.0453 50.7405 42.2427 50.7405 45.144C50.7405 48.0027 51.4232 50.2 52.7885 51.736C54.1965 53.272 55.9458 54.04 58.0365 54.04ZM93.4745 33.24C94.7545 31.2773 96.3545 29.7413 98.2745 28.632C100.195 27.48 102.328 26.904 104.675 26.904V38.488H101.667C98.9358 38.488 96.8878 39.0853 95.5225 40.28C94.1572 41.432 93.4745 43.48 93.4745 46.424V63H82.5305V27.288H93.4745V33.24ZM131.666 26.904C135.847 26.904 139.175 28.2693 141.65 31C144.167 33.688 145.426 37.4 145.426 42.136V63H134.546V43.608C134.546 41.2187 133.927 39.3627 132.69 38.04C131.452 36.7173 129.788 36.056 127.698 36.056C125.607 36.056 123.943 36.7173 122.706 38.04C121.468 39.3627 120.85 41.2187 120.85 43.608V63H109.906V27.288H120.85V32.024C121.959 30.4453 123.452 29.208 125.33 28.312C127.207 27.3733 129.319 26.904 131.666 26.904ZM150.855 45.08C150.855 41.4107 151.537 38.1893 152.903 35.416C154.311 32.6427 156.209 30.5093 158.599 29.016C160.988 27.5227 163.655 26.776 166.599 26.776C169.116 26.776 171.313 27.288 173.191 28.312C175.111 29.336 176.583 30.68 177.607 32.344V27.288H188.551V63H177.607V57.944C176.54 59.608 175.047 60.952 173.127 61.976C171.249 63 169.052 63.512 166.535 63.512C163.633 63.512 160.988 62.7653 158.599 61.272C156.209 59.736 154.311 57.5813 152.903 54.808C151.537 51.992 150.855 48.7493 150.855 45.08ZM177.607 45.144C177.607 42.4133 176.839 40.2587 175.303 38.68C173.809 37.1013 171.975 36.312 169.799 36.312C167.623 36.312 165.767 37.1013 164.231 38.68C162.737 40.216 161.991 42.3493 161.991 45.08C161.991 47.8107 162.737 49.9867 164.231 51.608C165.767 53.1867 167.623 53.976 169.799 53.976C171.975 53.976 173.809 53.1867 175.303 51.608C176.839 50.0293 177.607 47.8747 177.607 45.144ZM223.988 35.992V45.08H195.828V35.992H223.988ZM253.497 53.72V63H247.929C243.961 63 240.868 62.04 238.649 60.12C236.43 58.1573 235.321 54.9787 235.321 50.584V36.376H230.969V27.288H235.321V18.584H246.265V27.288H253.433V36.376H246.265V50.712C246.265 51.7787 246.521 52.5467 247.033 53.016C247.545 53.4853 248.398 53.72 249.593 53.72H253.497ZM293.257 44.568C293.257 45.592 293.193 46.6587 293.065 47.768H268.297C268.468 49.9867 269.172 51.6933 270.409 52.888C271.689 54.04 273.246 54.616 275.081 54.616C277.812 54.616 279.71 53.464 280.777 51.16H292.425C291.828 53.5067 290.74 55.6187 289.161 57.496C287.625 59.3733 285.684 60.8453 283.337 61.912C280.99 62.9787 278.366 63.512 275.465 63.512C271.966 63.512 268.852 62.7653 266.121 61.272C263.39 59.7787 261.257 57.6453 259.721 54.872C258.185 52.0987 257.417 48.856 257.417 45.144C257.417 41.432 258.164 38.1893 259.657 35.416C261.193 32.6427 263.326 30.5093 266.057 29.016C268.788 27.5227 271.924 26.776 275.465 26.776C278.921 26.776 281.993 27.5013 284.681 28.952C287.369 30.4027 289.46 32.472 290.953 35.16C292.489 37.848 293.257 40.984 293.257 44.568ZM282.057 41.688C282.057 39.8107 281.417 38.3173 280.137 37.208C278.857 36.0987 277.257 35.544 275.337 35.544C273.502 35.544 271.945 36.0773 270.665 37.144C269.428 38.2107 268.66 39.7253 268.361 41.688H282.057ZM9.472 105.576C7.552 105.576 5.97333 105.021 4.736 103.912C3.54133 102.76 2.944 101.352 2.944 99.688C2.944 97.9813 3.54133 96.5733 4.736 95.464C5.97333 94.312 7.552 93.736 9.472 93.736C11.3493 93.736 12.8853 94.312 14.08 95.464C15.3173 96.5733 15.936 97.9813 15.936 99.688C15.936 101.352 15.3173 102.76 14.08 103.912C12.8853 105.021 11.3493 105.576 9.472 105.576ZM14.912 109.288V145H3.968V109.288H14.912ZM44.603 108.904C48.7843 108.904 52.1123 110.269 54.587 113C57.1043 115.688 58.363 119.4 58.363 124.136V145H47.483V125.608C47.483 123.219 46.8643 121.363 45.627 120.04C44.3897 118.717 42.7257 118.056 40.635 118.056C38.5443 118.056 36.8803 118.717 35.643 120.04C34.4057 121.363 33.787 123.219 33.787 125.608V145H22.843V109.288H33.787V114.024C34.8963 112.445 36.3897 111.208 38.267 110.312C40.1443 109.373 42.2563 108.904 44.603 108.904ZM63.792 127.08C63.792 123.411 64.4747 120.189 65.84 117.416C67.248 114.643 69.1467 112.509 71.536 111.016C73.9253 109.523 76.592 108.776 79.536 108.776C81.8827 108.776 84.016 109.267 85.936 110.248C87.8987 111.229 89.4347 112.552 90.544 114.216V97.64H101.488V145H90.544V139.88C89.52 141.587 88.048 142.952 86.128 143.976C84.2507 145 82.0533 145.512 79.536 145.512C76.592 145.512 73.9253 144.765 71.536 143.272C69.1467 141.736 67.248 139.581 65.84 136.808C64.4747 133.992 63.792 130.749 63.792 127.08ZM90.544 127.144C90.544 124.413 89.776 122.259 88.24 120.68C86.7467 119.101 84.912 118.312 82.736 118.312C80.56 118.312 78.704 119.101 77.168 120.68C75.6747 122.216 74.928 124.349 74.928 127.08C74.928 129.811 75.6747 131.987 77.168 133.608C78.704 135.187 80.56 135.976 82.736 135.976C84.912 135.976 86.7467 135.187 88.24 133.608C89.776 132.029 90.544 129.875 90.544 127.144ZM143.069 126.568C143.069 127.592 143.006 128.659 142.878 129.768H118.11C118.28 131.987 118.984 133.693 120.222 134.888C121.502 136.04 123.059 136.616 124.894 136.616C127.624 136.616 129.523 135.464 130.59 133.16H142.238C141.64 135.507 140.552 137.619 138.974 139.496C137.438 141.373 135.496 142.845 133.15 143.912C130.803 144.979 128.179 145.512 125.278 145.512C121.779 145.512 118.664 144.765 115.934 143.272C113.203 141.779 111.07 139.645 109.534 136.872C107.998 134.099 107.23 130.856 107.23 127.144C107.23 123.432 107.976 120.189 109.47 117.416C111.006 114.643 113.139 112.509 115.87 111.016C118.6 109.523 121.736 108.776 125.278 108.776C128.734 108.776 131.806 109.501 134.494 110.952C137.182 112.403 139.272 114.472 140.766 117.16C142.302 119.848 143.069 122.984 143.069 126.568ZM131.87 123.688C131.87 121.811 131.23 120.317 129.95 119.208C128.67 118.099 127.07 117.544 125.15 117.544C123.315 117.544 121.758 118.077 120.478 119.144C119.24 120.211 118.472 121.725 118.174 123.688H131.87ZM159.787 114.344C160.854 112.68 162.326 111.336 164.203 110.312C166.08 109.288 168.278 108.776 170.795 108.776C173.739 108.776 176.406 109.523 178.795 111.016C181.184 112.509 183.062 114.643 184.427 117.416C185.835 120.189 186.539 123.411 186.539 127.08C186.539 130.749 185.835 133.992 184.427 136.808C183.062 139.581 181.184 141.736 178.795 143.272C176.406 144.765 173.739 145.512 170.795 145.512C168.32 145.512 166.123 145 164.203 143.976C162.326 142.952 160.854 141.629 159.787 140.008V162.024H148.843V109.288H159.787V114.344ZM175.403 127.08C175.403 124.349 174.635 122.216 173.099 120.68C171.606 119.101 169.75 118.312 167.531 118.312C165.355 118.312 163.499 119.101 161.963 120.68C160.47 122.259 159.723 124.413 159.723 127.144C159.723 129.875 160.47 132.029 161.963 133.608C163.499 135.187 165.355 135.976 167.531 135.976C169.707 135.976 171.563 135.187 173.099 133.608C174.635 131.987 175.403 129.811 175.403 127.08ZM225.944 126.568C225.944 127.592 225.881 128.659 225.753 129.768H200.985C201.155 131.987 201.859 133.693 203.097 134.888C204.377 136.04 205.934 136.616 207.769 136.616C210.499 136.616 212.398 135.464 213.465 133.16H225.113C224.515 135.507 223.427 137.619 221.849 139.496C220.313 141.373 218.371 142.845 216.025 143.912C213.678 144.979 211.054 145.512 208.153 145.512C204.654 145.512 201.539 144.765 198.809 143.272C196.078 141.779 193.945 139.645 192.409 136.872C190.873 134.099 190.105 130.856 190.105 127.144C190.105 123.432 190.851 120.189 192.345 117.416C193.881 114.643 196.014 112.509 198.745 111.016C201.475 109.523 204.611 108.776 208.153 108.776C211.609 108.776 214.681 109.501 217.369 110.952C220.057 112.403 222.147 114.472 223.641 117.16C225.177 119.848 225.944 122.984 225.944 126.568ZM214.745 123.688C214.745 121.811 214.105 120.317 212.825 119.208C211.545 118.099 209.945 117.544 208.025 117.544C206.19 117.544 204.633 118.077 203.353 119.144C202.115 120.211 201.347 121.725 201.049 123.688H214.745ZM253.478 108.904C257.659 108.904 260.987 110.269 263.462 113C265.979 115.688 267.238 119.4 267.238 124.136V145H256.358V125.608C256.358 123.219 255.739 121.363 254.502 120.04C253.265 118.717 251.601 118.056 249.51 118.056C247.419 118.056 245.755 118.717 244.518 120.04C243.281 121.363 242.662 123.219 242.662 125.608V145H231.718V109.288H242.662V114.024C243.771 112.445 245.265 111.208 247.142 110.312C249.019 109.373 251.131 108.904 253.478 108.904ZM272.667 127.08C272.667 123.411 273.35 120.189 274.715 117.416C276.123 114.643 278.022 112.509 280.411 111.016C282.8 109.523 285.467 108.776 288.411 108.776C290.758 108.776 292.891 109.267 294.811 110.248C296.774 111.229 298.31 112.552 299.419 114.216V97.64H310.363V145H299.419V139.88C298.395 141.587 296.923 142.952 295.003 143.976C293.126 145 290.928 145.512 288.411 145.512C285.467 145.512 282.8 144.765 280.411 143.272C278.022 141.736 276.123 139.581 274.715 136.808C273.35 133.992 272.667 130.749 272.667 127.08ZM299.419 127.144C299.419 124.413 298.651 122.259 297.115 120.68C295.622 119.101 293.787 118.312 291.611 118.312C289.435 118.312 287.579 119.101 286.043 120.68C284.55 122.216 283.803 124.349 283.803 127.08C283.803 129.811 284.55 131.987 286.043 133.608C287.579 135.187 289.435 135.976 291.611 135.976C293.787 135.976 295.622 135.187 297.115 133.608C298.651 132.029 299.419 129.875 299.419 127.144ZM351.944 126.568C351.944 127.592 351.881 128.659 351.753 129.768H326.985C327.155 131.987 327.859 133.693 329.097 134.888C330.377 136.04 331.934 136.616 333.769 136.616C336.499 136.616 338.398 135.464 339.465 133.16H351.113C350.515 135.507 349.427 137.619 347.849 139.496C346.313 141.373 344.371 142.845 342.025 143.912C339.678 144.979 337.054 145.512 334.153 145.512C330.654 145.512 327.539 144.765 324.809 143.272C322.078 141.779 319.945 139.645 318.409 136.872C316.873 134.099 316.105 130.856 316.105 127.144C316.105 123.432 316.851 120.189 318.345 117.416C319.881 114.643 322.014 112.509 324.745 111.016C327.475 109.523 330.611 108.776 334.153 108.776C337.609 108.776 340.681 109.501 343.369 110.952C346.057 112.403 348.147 114.472 349.641 117.16C351.177 119.848 351.944 122.984 351.944 126.568ZM340.745 123.688C340.745 121.811 340.105 120.317 338.825 119.208C337.545 118.099 335.945 117.544 334.025 117.544C332.19 117.544 330.633 118.077 329.353 119.144C328.115 120.211 327.347 121.725 327.049 123.688H340.745ZM379.478 108.904C383.659 108.904 386.987 110.269 389.462 113C391.979 115.688 393.238 119.4 393.238 124.136V145H382.358V125.608C382.358 123.219 381.739 121.363 380.502 120.04C379.265 118.717 377.601 118.056 375.51 118.056C373.419 118.056 371.755 118.717 370.518 120.04C369.281 121.363 368.662 123.219 368.662 125.608V145H357.718V109.288H368.662V114.024C369.771 112.445 371.265 111.208 373.142 110.312C375.019 109.373 377.131 108.904 379.478 108.904ZM420.747 135.72V145H415.179C411.211 145 408.118 144.04 405.899 142.12C403.68 140.157 402.571 136.979 402.571 132.584V118.376H398.219V109.288H402.571V100.584H413.515V109.288H420.683V118.376H413.515V132.712C413.515 133.779 413.771 134.547 414.283 135.016C414.795 135.485 415.648 135.72 416.843 135.72H420.747ZM460.507 126.568C460.507 127.592 460.443 128.659 460.315 129.768H435.547C435.718 131.987 436.422 133.693 437.659 134.888C438.939 136.04 440.496 136.616 442.331 136.616C445.062 136.616 446.96 135.464 448.027 133.16H459.675C459.078 135.507 457.99 137.619 456.411 139.496C454.875 141.373 452.934 142.845 450.587 143.912C448.24 144.979 445.616 145.512 442.715 145.512C439.216 145.512 436.102 144.765 433.371 143.272C430.64 141.779 428.507 139.645 426.971 136.872C425.435 134.099 424.667 130.856 424.667 127.144C424.667 123.432 425.414 120.189 426.907 117.416C428.443 114.643 430.576 112.509 433.307 111.016C436.038 109.523 439.174 108.776 442.715 108.776C446.171 108.776 449.243 109.501 451.931 110.952C454.619 112.403 456.71 114.472 458.203 117.16C459.739 119.848 460.507 122.984 460.507 126.568ZM449.307 123.688C449.307 121.811 448.667 120.317 447.387 119.208C446.107 118.099 444.507 117.544 442.587 117.544C440.752 117.544 439.195 118.077 437.915 119.144C436.678 120.211 435.91 121.725 435.611 123.688H449.307Z" fill="white"/>
<path opacity="0.8" d="M12.144 193.272V195.048H7.584V210H5.4V195.048H0.816V193.272H12.144ZM17.0164 198.984C17.4004 198.232 17.9444 197.648 18.6484 197.232C19.3684 196.816 20.2404 196.608 21.2644 196.608V198.864H20.6884C18.2404 198.864 17.0164 200.192 17.0164 202.848V210H14.8324V196.848H17.0164V198.984ZM22.9695 203.376C22.9695 202.032 23.2415 200.856 23.7855 199.848C24.3295 198.824 25.0735 198.032 26.0175 197.472C26.9775 196.912 28.0415 196.632 29.2095 196.632C30.3615 196.632 31.3615 196.88 32.2095 197.376C33.0575 197.872 33.6895 198.496 34.1055 199.248V196.848H36.3135V210H34.1055V207.552C33.6735 208.32 33.0255 208.96 32.1615 209.472C31.3135 209.968 30.3215 210.216 29.1855 210.216C28.0175 210.216 26.9615 209.928 26.0175 209.352C25.0735 208.776 24.3295 207.968 23.7855 206.928C23.2415 205.888 22.9695 204.704 22.9695 203.376ZM34.1055 203.4C34.1055 202.408 33.9055 201.544 33.5055 200.808C33.1055 200.072 32.5615 199.512 31.8735 199.128C31.2015 198.728 30.4575 198.528 29.6415 198.528C28.8255 198.528 28.0815 198.72 27.4095 199.104C26.7375 199.488 26.2015 200.048 25.8015 200.784C25.4015 201.52 25.2015 202.384 25.2015 203.376C25.2015 204.384 25.4015 205.264 25.8015 206.016C26.2015 206.752 26.7375 207.32 27.4095 207.72C28.0815 208.104 28.8255 208.296 29.6415 208.296C30.4575 208.296 31.2015 208.104 31.8735 207.72C32.5615 207.32 33.1055 206.752 33.5055 206.016C33.9055 205.264 34.1055 204.392 34.1055 203.4ZM42.1883 199.296C42.6363 198.512 43.2923 197.872 44.1562 197.376C45.0203 196.88 46.0043 196.632 47.1083 196.632C48.2923 196.632 49.3563 196.912 50.3003 197.472C51.2443 198.032 51.9883 198.824 52.5323 199.848C53.0763 200.856 53.3483 202.032 53.3483 203.376C53.3483 204.704 53.0763 205.888 52.5323 206.928C51.9883 207.968 51.2362 208.776 50.2762 209.352C49.3323 209.928 48.2763 210.216 47.1083 210.216C45.9723 210.216 44.9723 209.968 44.1083 209.472C43.2603 208.976 42.6203 208.344 42.1883 207.576V210H40.0043V192.24H42.1883V199.296ZM51.1163 203.376C51.1163 202.384 50.9163 201.52 50.5163 200.784C50.1163 200.048 49.5723 199.488 48.8843 199.104C48.2123 198.72 47.4683 198.528 46.6523 198.528C45.8523 198.528 45.1083 198.728 44.4203 199.128C43.7483 199.512 43.2043 200.08 42.7883 200.832C42.3883 201.568 42.1883 202.424 42.1883 203.4C42.1883 204.392 42.3883 205.264 42.7883 206.016C43.2043 206.752 43.7483 207.32 44.4203 207.72C45.1083 208.104 45.8523 208.296 46.6523 208.296C47.4683 208.296 48.2123 208.104 48.8843 207.72C49.5723 207.32 50.1163 206.752 50.5163 206.016C50.9163 205.264 51.1163 204.384 51.1163 203.376ZM55.407 203.376C55.407 202.032 55.679 200.856 56.223 199.848C56.767 198.824 57.511 198.032 58.455 197.472C59.415 196.912 60.479 196.632 61.647 196.632C62.799 196.632 63.799 196.88 64.647 197.376C65.495 197.872 66.127 198.496 66.543 199.248V196.848H68.751V210H66.543V207.552C66.111 208.32 65.463 208.96 64.599 209.472C63.751 209.968 62.759 210.216 61.623 210.216C60.455 210.216 59.399 209.928 58.455 209.352C57.511 208.776 56.767 207.968 56.223 206.928C55.679 205.888 55.407 204.704 55.407 203.376ZM66.543 203.4C66.543 202.408 66.343 201.544 65.943 200.808C65.543 200.072 64.999 199.512 64.311 199.128C63.639 198.728 62.895 198.528 62.079 198.528C61.263 198.528 60.519 198.72 59.847 199.104C59.175 199.488 58.639 200.048 58.239 200.784C57.839 201.52 57.639 202.384 57.639 203.376C57.639 204.384 57.839 205.264 58.239 206.016C58.639 206.752 59.175 207.32 59.847 207.72C60.519 208.104 61.263 208.296 62.079 208.296C62.895 208.296 63.639 208.104 64.311 207.72C64.999 207.32 65.543 206.752 65.943 206.016C66.343 205.264 66.543 204.392 66.543 203.4ZM74.6258 192.24V210H72.4418V192.24H74.6258ZM84.876 196.608C85.868 196.608 86.764 196.824 87.564 197.256C88.364 197.672 88.988 198.304 89.436 199.152C89.9 200 90.132 201.032 90.132 202.248V210H87.972V202.56C87.972 201.248 87.644 200.248 86.988 199.56C86.332 198.856 85.436 198.504 84.3 198.504C83.148 198.504 82.228 198.864 81.54 199.584C80.868 200.304 80.532 201.352 80.532 202.728V210H78.348V192.24H80.532V198.72C80.964 198.048 81.556 197.528 82.308 197.16C83.076 196.792 83.932 196.608 84.876 196.608ZM92.8836 203.376C92.8836 202.032 93.1556 200.856 93.6996 199.848C94.2436 198.824 94.9876 198.032 95.9316 197.472C96.8916 196.912 97.9556 196.632 99.1236 196.632C100.276 196.632 101.276 196.88 102.124 197.376C102.972 197.872 103.604 198.496 104.02 199.248V196.848H106.228V210H104.02V207.552C103.588 208.32 102.94 208.96 102.076 209.472C101.228 209.968 100.236 210.216 99.0996 210.216C97.9316 210.216 96.8756 209.928 95.9316 209.352C94.9876 208.776 94.2436 207.968 93.6996 206.928C93.1556 205.888 92.8836 204.704 92.8836 203.376ZM104.02 203.4C104.02 202.408 103.82 201.544 103.42 200.808C103.02 200.072 102.476 199.512 101.788 199.128C101.116 198.728 100.372 198.528 99.5556 198.528C98.7396 198.528 97.9956 198.72 97.3236 199.104C96.6516 199.488 96.1156 200.048 95.7156 200.784C95.3156 201.52 95.1156 202.384 95.1156 203.376C95.1156 204.384 95.3156 205.264 95.7156 206.016C96.1156 206.752 96.6516 207.32 97.3236 207.72C97.9956 208.104 98.7396 208.296 99.5556 208.296C100.372 208.296 101.116 208.104 101.788 207.72C102.476 207.32 103.02 206.752 103.42 206.016C103.82 205.264 104.02 204.392 104.02 203.4ZM122.725 196.608C124.325 196.608 125.621 197.096 126.613 198.072C127.605 199.032 128.101 200.424 128.101 202.248V210H125.941V202.56C125.941 201.248 125.613 200.248 124.957 199.56C124.301 198.856 123.405 198.504 122.269 198.504C121.117 198.504 120.197 198.864 119.509 199.584C118.837 200.304 118.501 201.352 118.501 202.728V210H116.317V196.848H118.501V198.72C118.933 198.048 119.517 197.528 120.253 197.16C121.005 196.792 121.829 196.608 122.725 196.608ZM137.404 210.216C136.172 210.216 135.052 209.936 134.044 209.376C133.052 208.816 132.268 208.024 131.692 207C131.132 205.96 130.852 204.76 130.852 203.4C130.852 202.056 131.14 200.872 131.716 199.848C132.308 198.808 133.108 198.016 134.116 197.472C135.124 196.912 136.252 196.632 137.5 196.632C138.748 196.632 139.876 196.912 140.884 197.472C141.892 198.016 142.684 198.8 143.26 199.824C143.852 200.848 144.148 202.04 144.148 203.4C144.148 204.76 143.844 205.96 143.236 207C142.644 208.024 141.836 208.816 140.812 209.376C139.788 209.936 138.652 210.216 137.404 210.216ZM137.404 208.296C138.188 208.296 138.924 208.112 139.612 207.744C140.3 207.376 140.852 206.824 141.268 206.088C141.7 205.352 141.916 204.456 141.916 203.4C141.916 202.344 141.708 201.448 141.292 200.712C140.876 199.976 140.332 199.432 139.66 199.08C138.988 198.712 138.26 198.528 137.476 198.528C136.676 198.528 135.94 198.712 135.268 199.08C134.612 199.432 134.084 199.976 133.684 200.712C133.284 201.448 133.084 202.344 133.084 203.4C133.084 204.472 133.276 205.376 133.66 206.112C134.06 206.848 134.588 207.4 135.244 207.768C135.9 208.12 136.62 208.296 137.404 208.296ZM151.676 210.216C150.668 210.216 149.764 210.048 148.964 209.712C148.164 209.36 147.532 208.88 147.068 208.272C146.604 207.648 146.348 206.936 146.3 206.136H148.556C148.62 206.792 148.924 207.328 149.468 207.744C150.028 208.16 150.756 208.368 151.652 208.368C152.484 208.368 153.14 208.184 153.62 207.816C154.1 207.448 154.34 206.984 154.34 206.424C154.34 205.848 154.084 205.424 153.572 205.152C153.06 204.864 152.268 204.584 151.196 204.312C150.22 204.056 149.42 203.8 148.796 203.544C148.188 203.272 147.66 202.88 147.212 202.368C146.78 201.84 146.564 201.152 146.564 200.304C146.564 199.632 146.764 199.016 147.164 198.456C147.564 197.896 148.132 197.456 148.868 197.136C149.604 196.8 150.444 196.632 151.388 196.632C152.844 196.632 154.02 197 154.916 197.736C155.812 198.472 156.292 199.48 156.356 200.76H154.172C154.124 200.072 153.844 199.52 153.332 199.104C152.836 198.688 152.164 198.48 151.316 198.48C150.532 198.48 149.908 198.648 149.444 198.984C148.98 199.32 148.748 199.76 148.748 200.304C148.748 200.736 148.884 201.096 149.156 201.384C149.444 201.656 149.796 201.88 150.212 202.056C150.644 202.216 151.236 202.4 151.988 202.608C152.932 202.864 153.7 203.12 154.292 203.376C154.884 203.616 155.388 203.984 155.804 204.48C156.236 204.976 156.46 205.624 156.476 206.424C156.476 207.144 156.276 207.792 155.876 208.368C155.476 208.944 154.908 209.4 154.172 209.736C153.452 210.056 152.62 210.216 151.676 210.216ZM168.621 198.648V206.4C168.621 207.04 168.757 207.496 169.029 207.768C169.301 208.024 169.773 208.152 170.445 208.152H172.053V210H170.085C168.869 210 167.957 209.72 167.349 209.16C166.741 208.6 166.437 207.68 166.437 206.4V198.648H164.733V196.848H166.437V193.536H168.621V196.848H172.053V198.648H168.621ZM186.7 202.92C186.7 203.336 186.676 203.776 186.628 204.24H176.116C176.196 205.536 176.636 206.552 177.436 207.288C178.252 208.008 179.236 208.368 180.388 208.368C181.332 208.368 182.116 208.152 182.74 207.72C183.38 207.272 183.828 206.68 184.084 205.944H186.436C186.084 207.208 185.38 208.24 184.324 209.04C183.268 209.824 181.956 210.216 180.388 210.216C179.14 210.216 178.02 209.936 177.028 209.376C176.052 208.816 175.284 208.024 174.724 207C174.164 205.96 173.884 204.76 173.884 203.4C173.884 202.04 174.156 200.848 174.7 199.824C175.244 198.8 176.004 198.016 176.98 197.472C177.972 196.912 179.108 196.632 180.388 196.632C181.636 196.632 182.74 196.904 183.7 197.448C184.66 197.992 185.396 198.744 185.908 199.704C186.436 200.648 186.7 201.72 186.7 202.92ZM184.444 202.464C184.444 201.632 184.26 200.92 183.892 200.328C183.524 199.72 183.02 199.264 182.38 198.96C181.756 198.64 181.06 198.48 180.292 198.48C179.188 198.48 178.244 198.832 177.46 199.536C176.692 200.24 176.252 201.216 176.14 202.464H184.444ZM201.246 196.848V210H199.062V208.056C198.646 208.728 198.062 209.256 197.31 209.64C196.574 210.008 195.758 210.192 194.862 210.192C193.838 210.192 192.918 209.984 192.102 209.568C191.286 209.136 190.638 208.496 190.158 207.648C189.694 206.8 189.462 205.768 189.462 204.552V196.848H191.622V204.264C191.622 205.56 191.95 206.56 192.606 207.264C193.262 207.952 194.158 208.296 195.294 208.296C196.462 208.296 197.382 207.936 198.054 207.216C198.726 206.496 199.062 205.448 199.062 204.072V196.848H201.246ZM209.59 210.216C208.582 210.216 207.678 210.048 206.878 209.712C206.078 209.36 205.446 208.88 204.982 208.272C204.518 207.648 204.262 206.936 204.214 206.136H206.47C206.534 206.792 206.838 207.328 207.382 207.744C207.942 208.16 208.67 208.368 209.566 208.368C210.398 208.368 211.054 208.184 211.534 207.816C212.014 207.448 212.254 206.984 212.254 206.424C212.254 205.848 211.998 205.424 211.486 205.152C210.974 204.864 210.182 204.584 209.11 204.312C208.134 204.056 207.334 203.8 206.71 203.544C206.102 203.272 205.574 202.88 205.126 202.368C204.694 201.84 204.478 201.152 204.478 200.304C204.478 199.632 204.678 199.016 205.078 198.456C205.478 197.896 206.046 197.456 206.782 197.136C207.518 196.8 208.358 196.632 209.302 196.632C210.758 196.632 211.934 197 212.83 197.736C213.726 198.472 214.206 199.48 214.27 200.76H212.086C212.038 200.072 211.758 199.52 211.246 199.104C210.75 198.688 210.078 198.48 209.23 198.48C208.446 198.48 207.822 198.648 207.358 198.984C206.894 199.32 206.662 199.76 206.662 200.304C206.662 200.736 206.798 201.096 207.07 201.384C207.358 201.656 207.71 201.88 208.126 202.056C208.558 202.216 209.15 202.4 209.902 202.608C210.846 202.864 211.614 203.12 212.206 203.376C212.798 203.616 213.302 203.984 213.718 204.48C214.15 204.976 214.374 205.624 214.39 206.424C214.39 207.144 214.19 207.792 213.79 208.368C213.39 208.944 212.822 209.4 212.086 209.736C211.366 210.056 210.534 210.216 209.59 210.216ZM226.535 198.648V206.4C226.535 207.04 226.671 207.496 226.943 207.768C227.215 208.024 227.687 208.152 228.359 208.152H229.967V210H227.999C226.783 210 225.871 209.72 225.263 209.16C224.655 208.6 224.351 207.68 224.351 206.4V198.648H222.647V196.848H224.351V193.536H226.535V196.848H229.967V198.648H226.535ZM244.614 202.92C244.614 203.336 244.59 203.776 244.542 204.24H234.03C234.11 205.536 234.55 206.552 235.35 207.288C236.166 208.008 237.15 208.368 238.302 208.368C239.246 208.368 240.03 208.152 240.654 207.72C241.294 207.272 241.742 206.68 241.998 205.944H244.35C243.998 207.208 243.294 208.24 242.238 209.04C241.182 209.824 239.87 210.216 238.302 210.216C237.054 210.216 235.934 209.936 234.942 209.376C233.966 208.816 233.198 208.024 232.638 207C232.078 205.96 231.798 204.76 231.798 203.4C231.798 202.04 232.07 200.848 232.614 199.824C233.158 198.8 233.918 198.016 234.894 197.472C235.886 196.912 237.022 196.632 238.302 196.632C239.55 196.632 240.654 196.904 241.614 197.448C242.574 197.992 243.31 198.744 243.822 199.704C244.35 200.648 244.614 201.72 244.614 202.92ZM242.358 202.464C242.358 201.632 242.174 200.92 241.806 200.328C241.438 199.72 240.934 199.264 240.294 198.96C239.67 198.64 238.974 198.48 238.206 198.48C237.102 198.48 236.158 198.832 235.374 199.536C234.606 200.24 234.166 201.216 234.054 202.464H242.358ZM263.312 196.608C264.336 196.608 265.248 196.824 266.048 197.256C266.848 197.672 267.48 198.304 267.944 199.152C268.408 200 268.64 201.032 268.64 202.248V210H266.48V202.56C266.48 201.248 266.152 200.248 265.496 199.56C264.856 198.856 263.984 198.504 262.88 198.504C261.744 198.504 260.84 198.872 260.168 199.608C259.496 200.328 259.16 201.376 259.16 202.752V210H257V202.56C257 201.248 256.672 200.248 256.016 199.56C255.376 198.856 254.504 198.504 253.4 198.504C252.264 198.504 251.36 198.872 250.688 199.608C250.016 200.328 249.68 201.376 249.68 202.752V210H247.496V196.848H249.68V198.744C250.112 198.056 250.688 197.528 251.408 197.16C252.144 196.792 252.952 196.608 253.832 196.608C254.936 196.608 255.912 196.856 256.76 197.352C257.608 197.848 258.24 198.576 258.656 199.536C259.024 198.608 259.632 197.888 260.48 197.376C261.328 196.864 262.272 196.608 263.312 196.608ZM274.407 199.272C274.839 198.52 275.479 197.896 276.327 197.4C277.191 196.888 278.191 196.632 279.327 196.632C280.495 196.632 281.551 196.912 282.495 197.472C283.455 198.032 284.207 198.824 284.751 199.848C285.295 200.856 285.567 202.032 285.567 203.376C285.567 204.704 285.295 205.888 284.751 206.928C284.207 207.968 283.455 208.776 282.495 209.352C281.551 209.928 280.495 210.216 279.327 210.216C278.207 210.216 277.215 209.968 276.351 209.472C275.503 208.96 274.855 208.328 274.407 207.576V216.24H272.223V196.848H274.407V199.272ZM283.335 203.376C283.335 202.384 283.135 201.52 282.735 200.784C282.335 200.048 281.791 199.488 281.103 199.104C280.431 198.72 279.687 198.528 278.871 198.528C278.071 198.528 277.327 198.728 276.639 199.128C275.967 199.512 275.423 200.08 275.007 200.832C274.607 201.568 274.407 202.424 274.407 203.4C274.407 204.392 274.607 205.264 275.007 206.016C275.423 206.752 275.967 207.32 276.639 207.72C277.327 208.104 278.071 208.296 278.871 208.296C279.687 208.296 280.431 208.104 281.103 207.72C281.791 207.32 282.335 206.752 282.735 206.016C283.135 205.264 283.335 204.384 283.335 203.376ZM294.178 210.216C292.946 210.216 291.826 209.936 290.818 209.376C289.826 208.816 289.042 208.024 288.466 207C287.906 205.96 287.626 204.76 287.626 203.4C287.626 202.056 287.914 200.872 288.49 199.848C289.082 198.808 289.882 198.016 290.89 197.472C291.898 196.912 293.026 196.632 294.274 196.632C295.522 196.632 296.65 196.912 297.658 197.472C298.666 198.016 299.458 198.8 300.034 199.824C300.626 200.848 300.922 202.04 300.922 203.4C300.922 204.76 300.618 205.96 300.01 207C299.418 208.024 298.61 208.816 297.586 209.376C296.562 209.936 295.426 210.216 294.178 210.216ZM294.178 208.296C294.962 208.296 295.698 208.112 296.386 207.744C297.074 207.376 297.626 206.824 298.042 206.088C298.474 205.352 298.69 204.456 298.69 203.4C298.69 202.344 298.482 201.448 298.066 200.712C297.65 199.976 297.106 199.432 296.434 199.08C295.762 198.712 295.034 198.528 294.25 198.528C293.45 198.528 292.714 198.712 292.042 199.08C291.386 199.432 290.858 199.976 290.458 200.712C290.058 201.448 289.858 202.344 289.858 203.4C289.858 204.472 290.05 205.376 290.434 206.112C290.834 206.848 291.362 207.4 292.018 207.768C292.674 208.12 293.394 208.296 294.178 208.296ZM308.449 210.216C307.441 210.216 306.537 210.048 305.737 209.712C304.937 209.36 304.305 208.88 303.841 208.272C303.377 207.648 303.121 206.936 303.073 206.136H305.329C305.393 206.792 305.697 207.328 306.241 207.744C306.801 208.16 307.529 208.368 308.425 208.368C309.257 208.368 309.913 208.184 310.393 207.816C310.873 207.448 311.113 206.984 311.113 206.424C311.113 205.848 310.857 205.424 310.345 205.152C309.833 204.864 309.041 204.584 307.969 204.312C306.993 204.056 306.193 203.8 305.569 203.544C304.961 203.272 304.433 202.88 303.985 202.368C303.553 201.84 303.337 201.152 303.337 200.304C303.337 199.632 303.537 199.016 303.937 198.456C304.337 197.896 304.905 197.456 305.641 197.136C306.377 196.8 307.217 196.632 308.161 196.632C309.617 196.632 310.793 197 311.689 197.736C312.585 198.472 313.065 199.48 313.129 200.76H310.945C310.897 200.072 310.617 199.52 310.105 199.104C309.609 198.688 308.937 198.48 308.089 198.48C307.305 198.48 306.681 198.648 306.217 198.984C305.753 199.32 305.521 199.76 305.521 200.304C305.521 200.736 305.657 201.096 305.929 201.384C306.217 201.656 306.569 201.88 306.985 202.056C307.417 202.216 308.009 202.4 308.761 202.608C309.705 202.864 310.473 203.12 311.065 203.376C311.657 203.616 312.161 203.984 312.577 204.48C313.009 204.976 313.233 205.624 313.249 206.424C313.249 207.144 313.049 207.792 312.649 208.368C312.249 208.944 311.681 209.4 310.945 209.736C310.225 210.056 309.393 210.216 308.449 210.216ZM324.915 192.24V210H322.731V192.24H324.915ZM329.765 194.712C329.349 194.712 328.997 194.568 328.709 194.28C328.421 193.992 328.277 193.64 328.277 193.224C328.277 192.808 328.421 192.456 328.709 192.168C328.997 191.88 329.349 191.736 329.765 191.736C330.165 191.736 330.501 191.88 330.773 192.168C331.061 192.456 331.205 192.808 331.205 193.224C331.205 193.64 331.061 193.992 330.773 194.28C330.501 194.568 330.165 194.712 329.765 194.712ZM330.821 196.848V210H328.637V196.848H330.821ZM339.439 207.984L343.519 196.848H345.847L340.687 210H338.143L332.983 196.848H335.335L339.439 207.984ZM350.18 198.984C350.564 198.232 351.108 197.648 351.812 197.232C352.532 196.816 353.404 196.608 354.428 196.608V198.864H353.852C351.404 198.864 350.18 200.192 350.18 202.848V210H347.996V196.848H350.18V198.984ZM368.95 202.92C368.95 203.336 368.926 203.776 368.878 204.24H358.366C358.446 205.536 358.886 206.552 359.686 207.288C360.502 208.008 361.486 208.368 362.638 208.368C363.582 208.368 364.366 208.152 364.99 207.72C365.63 207.272 366.078 206.68 366.334 205.944H368.686C368.334 207.208 367.63 208.24 366.574 209.04C365.518 209.824 364.206 210.216 362.638 210.216C361.39 210.216 360.27 209.936 359.278 209.376C358.302 208.816 357.534 208.024 356.974 207C356.414 205.96 356.134 204.76 356.134 203.4C356.134 202.04 356.406 200.848 356.95 199.824C357.494 198.8 358.254 198.016 359.23 197.472C360.222 196.912 361.358 196.632 362.638 196.632C363.886 196.632 364.99 196.904 365.95 197.448C366.91 197.992 367.646 198.744 368.158 199.704C368.686 200.648 368.95 201.72 368.95 202.92ZM366.694 202.464C366.694 201.632 366.51 200.92 366.142 200.328C365.774 199.72 365.27 199.264 364.63 198.96C364.006 198.64 363.31 198.48 362.542 198.48C361.438 198.48 360.494 198.832 359.71 199.536C358.942 200.24 358.502 201.216 358.39 202.464H366.694ZM376.488 210.216C375.48 210.216 374.576 210.048 373.776 209.712C372.976 209.36 372.344 208.88 371.88 208.272C371.416 207.648 371.16 206.936 371.112 206.136H373.368C373.432 206.792 373.736 207.328 374.28 207.744C374.84 208.16 375.568 208.368 376.464 208.368C377.296 208.368 377.952 208.184 378.432 207.816C378.912 207.448 379.152 206.984 379.152 206.424C379.152 205.848 378.896 205.424 378.384 205.152C377.872 204.864 377.08 204.584 376.008 204.312C375.032 204.056 374.232 203.8 373.608 203.544C373 203.272 372.472 202.88 372.024 202.368C371.592 201.84 371.376 201.152 371.376 200.304C371.376 199.632 371.576 199.016 371.976 198.456C372.376 197.896 372.944 197.456 373.68 197.136C374.416 196.8 375.256 196.632 376.2 196.632C377.656 196.632 378.832 197 379.728 197.736C380.624 198.472 381.104 199.48 381.168 200.76H378.984C378.936 200.072 378.656 199.52 378.144 199.104C377.648 198.688 376.976 198.48 376.128 198.48C375.344 198.48 374.72 198.648 374.256 198.984C373.792 199.32 373.56 199.76 373.56 200.304C373.56 200.736 373.696 201.096 373.968 201.384C374.256 201.656 374.608 201.88 375.024 202.056C375.456 202.216 376.048 202.4 376.8 202.608C377.744 202.864 378.512 203.12 379.104 203.376C379.696 203.616 380.2 203.984 380.616 204.48C381.048 204.976 381.272 205.624 381.288 206.424C381.288 207.144 381.088 207.792 380.688 208.368C380.288 208.944 379.72 209.4 378.984 209.736C378.264 210.056 377.432 210.216 376.488 210.216ZM402.77 202.92C402.77 203.336 402.746 203.776 402.698 204.24H392.186C392.266 205.536 392.706 206.552 393.506 207.288C394.322 208.008 395.306 208.368 396.458 208.368C397.402 208.368 398.186 208.152 398.81 207.72C399.45 207.272 399.898 206.68 400.154 205.944H402.506C402.154 207.208 401.45 208.24 400.394 209.04C399.338 209.824 398.026 210.216 396.458 210.216C395.21 210.216 394.09 209.936 393.098 209.376C392.122 208.816 391.354 208.024 390.794 207C390.234 205.96 389.954 204.76 389.954 203.4C389.954 202.04 390.226 200.848 390.77 199.824C391.314 198.8 392.074 198.016 393.05 197.472C394.042 196.912 395.178 196.632 396.458 196.632C397.706 196.632 398.81 196.904 399.77 197.448C400.73 197.992 401.466 198.744 401.978 199.704C402.506 200.648 402.77 201.72 402.77 202.92ZM400.514 202.464C400.514 201.632 400.33 200.92 399.962 200.328C399.594 199.72 399.09 199.264 398.45 198.96C397.826 198.64 397.13 198.48 396.362 198.48C395.258 198.48 394.314 198.832 393.53 199.536C392.762 200.24 392.322 201.216 392.21 202.464H400.514ZM417.475 196.632C418.611 196.632 419.603 196.88 420.451 197.376C421.315 197.872 421.955 198.496 422.371 199.248V196.848H424.579V210.288C424.579 211.488 424.323 212.552 423.811 213.48C423.299 214.424 422.563 215.16 421.603 215.688C420.659 216.216 419.555 216.48 418.291 216.48C416.563 216.48 415.123 216.072 413.971 215.256C412.819 214.44 412.139 213.328 411.931 211.92H414.091C414.331 212.72 414.827 213.36 415.579 213.84C416.331 214.336 417.235 214.584 418.291 214.584C419.491 214.584 420.467 214.208 421.219 213.456C421.987 212.704 422.371 211.648 422.371 210.288V207.528C421.939 208.296 421.299 208.936 420.451 209.448C419.603 209.96 418.611 210.216 417.475 210.216C416.307 210.216 415.243 209.928 414.283 209.352C413.339 208.776 412.595 207.968 412.051 206.928C411.507 205.888 411.235 204.704 411.235 203.376C411.235 202.032 411.507 200.856 412.051 199.848C412.595 198.824 413.339 198.032 414.283 197.472C415.243 196.912 416.307 196.632 417.475 196.632ZM422.371 203.4C422.371 202.408 422.171 201.544 421.771 200.808C421.371 200.072 420.827 199.512 420.139 199.128C419.467 198.728 418.723 198.528 417.907 198.528C417.091 198.528 416.347 198.72 415.675 199.104C415.003 199.488 414.467 200.048 414.067 200.784C413.667 201.52 413.467 202.384 413.467 203.376C413.467 204.384 413.667 205.264 414.067 206.016C414.467 206.752 415.003 207.32 415.675 207.72C416.347 208.104 417.091 208.296 417.907 208.296C418.723 208.296 419.467 208.104 420.139 207.72C420.827 207.32 421.371 206.752 421.771 206.016C422.171 205.264 422.371 204.392 422.371 203.4ZM427.454 203.376C427.454 202.032 427.726 200.856 428.27 199.848C428.814 198.824 429.558 198.032 430.502 197.472C431.462 196.912 432.526 196.632 433.694 196.632C434.846 196.632 435.846 196.88 436.694 197.376C437.542 197.872 438.174 198.496 438.59 199.248V196.848H440.798V210H438.59V207.552C438.158 208.32 437.51 208.96 436.646 209.472C435.798 209.968 434.806 210.216 433.67 210.216C432.502 210.216 431.446 209.928 430.502 209.352C429.558 208.776 428.814 207.968 428.27 206.928C427.726 205.888 427.454 204.704 427.454 203.376ZM438.59 203.4C438.59 202.408 438.39 201.544 437.99 200.808C437.59 200.072 437.046 199.512 436.358 199.128C435.686 198.728 434.942 198.528 434.126 198.528C433.31 198.528 432.566 198.72 431.894 199.104C431.222 199.488 430.686 200.048 430.286 200.784C429.886 201.52 429.686 202.384 429.686 203.376C429.686 204.384 429.886 205.264 430.286 206.016C430.686 206.752 431.222 207.32 431.894 207.72C432.566 208.104 433.31 208.296 434.126 208.296C434.942 208.296 435.686 208.104 436.358 207.72C437.046 207.32 437.59 206.752 437.99 206.016C438.39 205.264 438.59 204.392 438.59 203.4ZM450.897 196.608C452.497 196.608 453.793 197.096 454.785 198.072C455.777 199.032 456.273 200.424 456.273 202.248V210H454.113V202.56C454.113 201.248 453.785 200.248 453.129 199.56C452.473 198.856 451.577 198.504 450.441 198.504C449.289 198.504 448.369 198.864 447.681 199.584C447.009 200.304 446.673 201.352 446.673 202.728V210H444.489V196.848H446.673V198.72C447.105 198.048 447.689 197.528 448.425 197.16C449.177 196.792 450.001 196.608 450.897 196.608ZM466.368 196.608C467.36 196.608 468.256 196.824 469.056 197.256C469.856 197.672 470.48 198.304 470.928 199.152C471.392 200 471.624 201.032 471.624 202.248V210H469.464V202.56C469.464 201.248 469.136 200.248 468.48 199.56C467.824 198.856 466.928 198.504 465.792 198.504C464.64 198.504 463.72 198.864 463.032 199.584C462.36 200.304 462.024 201.352 462.024 202.728V210H459.84V192.24H462.024V198.72C462.456 198.048 463.048 197.528 463.8 197.16C464.568 196.792 465.424 196.608 466.368 196.608ZM474.376 203.376C474.376 202.032 474.648 200.856 475.192 199.848C475.736 198.824 476.48 198.032 477.424 197.472C478.384 196.912 479.448 196.632 480.616 196.632C481.768 196.632 482.768 196.88 483.616 197.376C484.464 197.872 485.096 198.496 485.512 199.248V196.848H487.72V210H485.512V207.552C485.08 208.32 484.432 208.96 483.568 209.472C482.72 209.968 481.728 210.216 480.592 210.216C479.424 210.216 478.368 209.928 477.424 209.352C476.48 208.776 475.736 207.968 475.192 206.928C474.648 205.888 474.376 204.704 474.376 203.376ZM485.512 203.4C485.512 202.408 485.312 201.544 484.912 200.808C484.512 200.072 483.968 199.512 483.28 199.128C482.608 198.728 481.864 198.528 481.048 198.528C480.232 198.528 479.488 198.72 478.816 199.104C478.144 199.488 477.608 200.048 477.208 200.784C476.808 201.52 476.608 202.384 476.608 203.376C476.608 204.384 476.808 205.264 477.208 206.016C477.608 206.752 478.144 207.32 478.816 207.72C479.488 208.104 480.232 208.296 481.048 208.296C481.864 208.296 482.608 208.104 483.28 207.72C483.968 207.32 484.512 206.752 484.912 206.016C485.312 205.264 485.512 204.392 485.512 203.4ZM496.993 203.376C496.993 202.032 497.265 200.856 497.809 199.848C498.353 198.824 499.097 198.032 500.041 197.472C501.001 196.912 502.065 196.632 503.233 196.632C504.385 196.632 505.385 196.88 506.233 197.376C507.081 197.872 507.713 198.496 508.129 199.248V196.848H510.337V210H508.129V207.552C507.697 208.32 507.049 208.96 506.185 209.472C505.337 209.968 504.345 210.216 503.209 210.216C502.041 210.216 500.985 209.928 500.041 209.352C499.097 208.776 498.353 207.968 497.809 206.928C497.265 205.888 496.993 204.704 496.993 203.376ZM508.129 203.4C508.129 202.408 507.929 201.544 507.529 200.808C507.129 200.072 506.585 199.512 505.897 199.128C505.225 198.728 504.481 198.528 503.665 198.528C502.849 198.528 502.105 198.72 501.433 199.104C500.761 199.488 500.225 200.048 499.825 200.784C499.425 201.52 499.225 202.384 499.225 203.376C499.225 204.384 499.425 205.264 499.825 206.016C500.225 206.752 500.761 207.32 501.433 207.72C502.105 208.104 502.849 208.296 503.665 208.296C504.481 208.296 505.225 208.104 505.897 207.72C506.585 207.32 507.129 206.752 507.529 206.016C507.929 205.264 508.129 204.392 508.129 203.4ZM523.09 198.648V206.4C523.09 207.04 523.226 207.496 523.498 207.768C523.77 208.024 524.242 208.152 524.914 208.152H526.522V210H524.554C523.338 210 522.426 209.72 521.818 209.16C521.21 208.6 520.906 207.68 520.906 206.4V198.648H519.202V196.848H520.906V193.536H523.09V196.848H526.522V198.648H523.09ZM540.832 196.848V210H538.648V208.056C538.232 208.728 537.648 209.256 536.896 209.64C536.16 210.008 535.344 210.192 534.448 210.192C533.424 210.192 532.504 209.984 531.688 209.568C530.872 209.136 530.224 208.496 529.744 207.648C529.28 206.8 529.048 205.768 529.048 204.552V196.848H531.208V204.264C531.208 205.56 531.536 206.56 532.192 207.264C532.848 207.952 533.744 208.296 534.88 208.296C536.048 208.296 536.968 207.936 537.64 207.216C538.312 206.496 538.648 205.448 538.648 204.072V196.848H540.832ZM543.704 203.376C543.704 202.032 543.976 200.856 544.52 199.848C545.064 198.824 545.808 198.032 546.752 197.472C547.712 196.912 548.776 196.632 549.944 196.632C551.096 196.632 552.096 196.88 552.944 197.376C553.792 197.872 554.424 198.496 554.84 199.248V196.848H557.048V210H554.84V207.552C554.408 208.32 553.76 208.96 552.896 209.472C552.048 209.968 551.056 210.216 549.92 210.216C548.752 210.216 547.696 209.928 546.752 209.352C545.808 208.776 545.064 207.968 544.52 206.928C543.976 205.888 543.704 204.704 543.704 203.376ZM554.84 203.4C554.84 202.408 554.64 201.544 554.24 200.808C553.84 200.072 553.296 199.512 552.608 199.128C551.936 198.728 551.192 198.528 550.376 198.528C549.56 198.528 548.816 198.72 548.144 199.104C547.472 199.488 546.936 200.048 546.536 200.784C546.136 201.52 545.936 202.384 545.936 203.376C545.936 204.384 546.136 205.264 546.536 206.016C546.936 206.752 547.472 207.32 548.144 207.72C548.816 208.104 549.56 208.296 550.376 208.296C551.192 208.296 551.936 208.104 552.608 207.72C553.296 207.32 553.84 206.752 554.24 206.016C554.64 205.264 554.84 204.392 554.84 203.4ZM2.976 224.712C2.56 224.712 2.208 224.568 1.92 224.28C1.632 223.992 1.488 223.64 1.488 223.224C1.488 222.808 1.632 222.456 1.92 222.168C2.208 221.88 2.56 221.736 2.976 221.736C3.376 221.736 3.712 221.88 3.984 222.168C4.272 222.456 4.416 222.808 4.416 223.224C4.416 223.64 4.272 223.992 3.984 224.28C3.712 224.568 3.376 224.712 2.976 224.712ZM4.032 226.848V240H1.848V226.848H4.032ZM14.1623 226.608C15.7623 226.608 17.0583 227.096 18.0503 228.072C19.0423 229.032 19.5383 230.424 19.5383 232.248V240H17.3783V232.56C17.3783 231.248 17.0503 230.248 16.3943 229.56C15.7383 228.856 14.8423 228.504 13.7063 228.504C12.5543 228.504 11.6343 228.864 10.9463 229.584C10.2743 230.304 9.93825 231.352 9.93825 232.728V240H7.75425V226.848H9.93825V228.72C10.3703 228.048 10.9543 227.528 11.6903 227.16C12.4423 226.792 13.2663 226.608 14.1623 226.608ZM22.2898 233.376C22.2898 232.032 22.5618 230.856 23.1058 229.848C23.6498 228.824 24.3938 228.032 25.3378 227.472C26.2978 226.912 27.3698 226.632 28.5538 226.632C29.5778 226.632 30.5298 226.872 31.4098 227.352C32.2898 227.816 32.9618 228.432 33.4258 229.2V222.24H35.6338V240H33.4258V237.528C32.9938 238.312 32.3538 238.96 31.5058 239.472C30.6578 239.968 29.6658 240.216 28.5298 240.216C27.3618 240.216 26.2978 239.928 25.3378 239.352C24.3938 238.776 23.6498 237.968 23.1058 236.928C22.5618 235.888 22.2898 234.704 22.2898 233.376ZM33.4258 233.4C33.4258 232.408 33.2258 231.544 32.8258 230.808C32.4258 230.072 31.8818 229.512 31.1938 229.128C30.5218 228.728 29.7778 228.528 28.9618 228.528C28.1458 228.528 27.4018 228.72 26.7298 229.104C26.0578 229.488 25.5218 230.048 25.1218 230.784C24.7218 231.52 24.5218 232.384 24.5218 233.376C24.5218 234.384 24.7218 235.264 25.1218 236.016C25.5218 236.752 26.0578 237.32 26.7298 237.72C27.4018 238.104 28.1458 238.296 28.9618 238.296C29.7778 238.296 30.5218 238.104 31.1938 237.72C31.8818 237.32 32.4258 236.752 32.8258 236.016C33.2258 235.264 33.4258 234.392 33.4258 233.4ZM51.3246 232.92C51.3246 233.336 51.3006 233.776 51.2526 234.24H40.7406C40.8206 235.536 41.2606 236.552 42.0606 237.288C42.8766 238.008 43.8606 238.368 45.0126 238.368C45.9566 238.368 46.7406 238.152 47.3646 237.72C48.0046 237.272 48.4526 236.68 48.7086 235.944H51.0606C50.7086 237.208 50.0046 238.24 48.9486 239.04C47.8926 239.824 46.5806 240.216 45.0126 240.216C43.7646 240.216 42.6446 239.936 41.6526 239.376C40.6766 238.816 39.9086 238.024 39.3486 237C38.7886 235.96 38.5086 234.76 38.5086 233.4C38.5086 232.04 38.7806 230.848 39.3246 229.824C39.8686 228.8 40.6286 228.016 41.6046 227.472C42.5966 226.912 43.7326 226.632 45.0126 226.632C46.2606 226.632 47.3646 226.904 48.3246 227.448C49.2846 227.992 50.0206 228.744 50.5326 229.704C51.0606 230.648 51.3246 231.72 51.3246 232.92ZM49.0686 232.464C49.0686 231.632 48.8846 230.92 48.5166 230.328C48.1486 229.72 47.6446 229.264 47.0046 228.96C46.3806 228.64 45.6846 228.48 44.9166 228.48C43.8126 228.48 42.8686 228.832 42.0846 229.536C41.3166 230.24 40.8766 231.216 40.7646 232.464H49.0686ZM56.3914 229.272C56.8234 228.52 57.4634 227.896 58.3114 227.4C59.1754 226.888 60.1754 226.632 61.3114 226.632C62.4794 226.632 63.5354 226.912 64.4794 227.472C65.4394 228.032 66.1914 228.824 66.7354 229.848C67.2794 230.856 67.5514 232.032 67.5514 233.376C67.5514 234.704 67.2794 235.888 66.7354 236.928C66.1914 237.968 65.4394 238.776 64.4794 239.352C63.5354 239.928 62.4794 240.216 61.3114 240.216C60.1914 240.216 59.1994 239.968 58.3354 239.472C57.4874 238.96 56.8394 238.328 56.3914 237.576V246.24H54.2074V226.848H56.3914V229.272ZM65.3194 233.376C65.3194 232.384 65.1194 231.52 64.7194 230.784C64.3194 230.048 63.7754 229.488 63.0874 229.104C62.4154 228.72 61.6714 228.528 60.8554 228.528C60.0554 228.528 59.3114 228.728 58.6234 229.128C57.9514 229.512 57.4074 230.08 56.9914 230.832C56.5914 231.568 56.3914 232.424 56.3914 233.4C56.3914 234.392 56.5914 235.264 56.9914 236.016C57.4074 236.752 57.9514 237.32 58.6234 237.72C59.3114 238.104 60.0554 238.296 60.8554 238.296C61.6714 238.296 62.4154 238.104 63.0874 237.72C63.7754 237.32 64.3194 236.752 64.7194 236.016C65.1194 235.264 65.3194 234.384 65.3194 233.376ZM82.4261 232.92C82.4261 233.336 82.4021 233.776 82.3541 234.24H71.8421C71.9221 235.536 72.3621 236.552 73.1621 237.288C73.9781 238.008 74.9621 238.368 76.1141 238.368C77.0581 238.368 77.8421 238.152 78.4661 237.72C79.1061 237.272 79.5541 236.68 79.8101 235.944H82.1621C81.8101 237.208 81.1061 238.24 80.0501 239.04C78.9941 239.824 77.6821 240.216 76.1141 240.216C74.8661 240.216 73.7461 239.936 72.7541 239.376C71.7781 238.816 71.0101 238.024 70.4501 237C69.8901 235.96 69.6101 234.76 69.6101 233.4C69.6101 232.04 69.8821 230.848 70.4261 229.824C70.9701 228.8 71.7301 228.016 72.7061 227.472C73.6981 226.912 74.8341 226.632 76.1141 226.632C77.3621 226.632 78.4661 226.904 79.4261 227.448C80.3861 227.992 81.1221 228.744 81.6341 229.704C82.1621 230.648 82.4261 231.72 82.4261 232.92ZM80.1701 232.464C80.1701 231.632 79.9861 230.92 79.6181 230.328C79.2501 229.72 78.7461 229.264 78.1061 228.96C77.4821 228.64 76.7861 228.48 76.0181 228.48C74.9141 228.48 73.9701 228.832 73.1861 229.536C72.4181 230.24 71.9781 231.216 71.8661 232.464H80.1701ZM91.7169 226.608C93.3169 226.608 94.6129 227.096 95.6049 228.072C96.5969 229.032 97.0929 230.424 97.0929 232.248V240H94.9329V232.56C94.9329 231.248 94.6049 230.248 93.9489 229.56C93.2929 228.856 92.3969 228.504 91.2609 228.504C90.1089 228.504 89.1889 228.864 88.5009 229.584C87.8289 230.304 87.4929 231.352 87.4929 232.728V240H85.3089V226.848H87.4929V228.72C87.9249 228.048 88.5089 227.528 89.2449 227.16C89.9969 226.792 90.8209 226.608 91.7169 226.608ZM99.8445 233.376C99.8445 232.032 100.117 230.856 100.661 229.848C101.205 228.824 101.949 228.032 102.893 227.472C103.853 226.912 104.925 226.632 106.109 226.632C107.133 226.632 108.085 226.872 108.965 227.352C109.845 227.816 110.517 228.432 110.981 229.2V222.24H113.189V240H110.981V237.528C110.549 238.312 109.909 238.96 109.061 239.472C108.213 239.968 107.221 240.216 106.085 240.216C104.917 240.216 103.853 239.928 102.893 239.352C101.949 238.776 101.205 237.968 100.661 236.928C100.117 235.888 99.8445 234.704 99.8445 233.376ZM110.981 233.4C110.981 232.408 110.781 231.544 110.381 230.808C109.981 230.072 109.437 229.512 108.749 229.128C108.077 228.728 107.333 228.528 106.517 228.528C105.701 228.528 104.957 228.72 104.285 229.104C103.613 229.488 103.077 230.048 102.677 230.784C102.277 231.52 102.077 232.384 102.077 233.376C102.077 234.384 102.277 235.264 102.677 236.016C103.077 236.752 103.613 237.32 104.285 237.72C104.957 238.104 105.701 238.296 106.517 238.296C107.333 238.296 108.077 238.104 108.749 237.72C109.437 237.32 109.981 236.752 110.381 236.016C110.781 235.264 110.981 234.392 110.981 233.4ZM128.879 232.92C128.879 233.336 128.855 233.776 128.807 234.24H118.295C118.375 235.536 118.815 236.552 119.615 237.288C120.431 238.008 121.415 238.368 122.567 238.368C123.511 238.368 124.295 238.152 124.919 237.72C125.559 237.272 126.007 236.68 126.263 235.944H128.615C128.263 237.208 127.559 238.24 126.503 239.04C125.447 239.824 124.135 240.216 122.567 240.216C121.319 240.216 120.199 239.936 119.207 239.376C118.231 238.816 117.463 238.024 116.903 237C116.343 235.96 116.063 234.76 116.063 233.4C116.063 232.04 116.335 230.848 116.879 229.824C117.423 228.8 118.183 228.016 119.159 227.472C120.151 226.912 121.287 226.632 122.567 226.632C123.815 226.632 124.919 226.904 125.879 227.448C126.839 227.992 127.575 228.744 128.087 229.704C128.615 230.648 128.879 231.72 128.879 232.92ZM126.623 232.464C126.623 231.632 126.439 230.92 126.071 230.328C125.703 229.72 125.199 229.264 124.559 228.96C123.935 228.64 123.239 228.48 122.471 228.48C121.367 228.48 120.423 228.832 119.639 229.536C118.871 230.24 118.431 231.216 118.319 232.464H126.623ZM122.495 223.632L119.159 225.672V223.944L122.495 221.952L125.807 223.944V225.672L122.495 223.632ZM138.17 226.608C139.77 226.608 141.066 227.096 142.058 228.072C143.05 229.032 143.546 230.424 143.546 232.248V240H141.386V232.56C141.386 231.248 141.058 230.248 140.402 229.56C139.746 228.856 138.85 228.504 137.714 228.504C136.562 228.504 135.642 228.864 134.954 229.584C134.282 230.304 133.946 231.352 133.946 232.728V240H131.762V226.848H133.946V228.72C134.378 228.048 134.962 227.528 135.698 227.16C136.45 226.792 137.274 226.608 138.17 226.608ZM146.298 233.4C146.298 232.04 146.57 230.856 147.114 229.848C147.658 228.824 148.41 228.032 149.37 227.472C150.346 226.912 151.458 226.632 152.706 226.632C154.322 226.632 155.65 227.024 156.69 227.808C157.746 228.592 158.442 229.68 158.778 231.072H156.426C156.202 230.272 155.762 229.64 155.106 229.176C154.466 228.712 153.666 228.48 152.706 228.48C151.458 228.48 150.45 228.912 149.682 229.776C148.914 230.624 148.53 231.832 148.53 233.4C148.53 234.984 148.914 236.208 149.682 237.072C150.45 237.936 151.458 238.368 152.706 238.368C153.666 238.368 154.466 238.144 155.106 237.696C155.746 237.248 156.186 236.608 156.426 235.776H158.778C158.426 237.12 157.722 238.2 156.666 239.016C155.61 239.816 154.29 240.216 152.706 240.216C151.458 240.216 150.346 239.936 149.37 239.376C148.41 238.816 147.658 238.024 147.114 237C146.57 235.976 146.298 234.776 146.298 233.4ZM162.82 224.712C162.404 224.712 162.052 224.568 161.764 224.28C161.476 223.992 161.332 223.64 161.332 223.224C161.332 222.808 161.476 222.456 161.764 222.168C162.052 221.88 162.404 221.736 162.82 221.736C163.22 221.736 163.556 221.88 163.828 222.168C164.116 222.456 164.26 222.808 164.26 223.224C164.26 223.64 164.116 223.992 163.828 224.28C163.556 224.568 163.22 224.712 162.82 224.712ZM163.876 226.848V240H161.692V226.848H163.876ZM166.782 233.376C166.782 232.032 167.054 230.856 167.598 229.848C168.142 228.824 168.886 228.032 169.83 227.472C170.79 226.912 171.854 226.632 173.022 226.632C174.174 226.632 175.174 226.88 176.022 227.376C176.87 227.872 177.502 228.496 177.918 229.248V226.848H180.126V240H177.918V237.552C177.486 238.32 176.838 238.96 175.974 239.472C175.126 239.968 174.134 240.216 172.998 240.216C171.83 240.216 170.774 239.928 169.83 239.352C168.886 238.776 168.142 237.968 167.598 236.928C167.054 235.888 166.782 234.704 166.782 233.376ZM177.918 233.4C177.918 232.408 177.718 231.544 177.318 230.808C176.918 230.072 176.374 229.512 175.686 229.128C175.014 228.728 174.27 228.528 173.454 228.528C172.638 228.528 171.894 228.72 171.222 229.104C170.55 229.488 170.014 230.048 169.614 230.784C169.214 231.52 169.014 232.384 169.014 233.376C169.014 234.384 169.214 235.264 169.614 236.016C170.014 236.752 170.55 237.32 171.222 237.72C171.894 238.104 172.638 238.296 173.454 238.296C174.27 238.296 175.014 238.104 175.686 237.72C176.374 237.32 176.918 236.752 177.318 236.016C177.718 235.264 177.918 234.392 177.918 233.4ZM186.649 223.272L186.385 235.272H184.561L184.297 223.272H186.649ZM185.569 240.144C185.153 240.144 184.801 240 184.513 239.712C184.225 239.424 184.081 239.072 184.081 238.656C184.081 238.24 184.225 237.888 184.513 237.6C184.801 237.312 185.153 237.168 185.569 237.168C185.969 237.168 186.305 237.312 186.577 237.6C186.865 237.888 187.009 238.24 187.009 238.656C187.009 239.072 186.865 239.424 186.577 239.712C186.305 240 185.969 240.144 185.569 240.144Z" fill="white"/>
</svg>
